<?xml version="1.0" encoding="UTF-8" standalone="no"?>
<!-- Created with Inkscape (http://www.inkscape.org/) -->

<svg
   width="104.3572mm"
   height="183.68861mm"
   viewBox="0 0 104.3572 183.68861"
   version="1.1"
   id="svg1"
   xmlns="http://www.w3.org/2000/svg"
   xmlns:svg="http://www.w3.org/2000/svg">
  <defs
     id="defs1" />
  <g
     id="layer1"
     transform="translate(-107.82141,-68.155687)">
    <g
       id="g1"
       transform="translate(-293.55153,-358.61724)">
      <path
         fill-rule="nonzero"
         fill="#606060"
         fill-opacity="1"
         d="m 415.31717,542.4471 6.43993,15.3851 c 27.02676,0.83301 46.69586,1.45624 63.58681,0 l 6.44303,-15.3851 -38.23539,-1.4583 -38.23438,1.4583"
         id="path42"
         style="stroke-width:0.264583" />
      <path
         fill-rule="nonzero"
         fill="#606060"
         fill-opacity="1"
         d="m 421.7571,557.8322 v 7.74113 c 0,0 -10.12031,14.37536 -19.58433,21.10361 0,0 -5.19969,5.21108 10.91613,9.4909 h 80.92321 c 16.11582,-4.27982 10.91925,-9.4909 10.91925,-9.4909 -9.46714,-6.72825 -19.58745,-21.10361 -19.58745,-21.10361 V 557.8322 H 421.7571"
         id="path43"
         style="stroke-width:0.264583" />
      <path
         fill-rule="nonzero"
         fill="#414141"
         fill-opacity="1"
         d="m 402.68331,586.30179 c -0.16949,0.12607 -0.34104,0.25424 -0.51054,0.37515 0,0 -5.19969,5.21108 10.91613,9.4909 h 80.92321 c 16.11582,-4.27982 10.91925,-9.4909 10.91925,-9.4909 -0.17158,-0.12091 -0.34108,-0.24908 -0.51057,-0.37515 -4.30776,1.59988 -17.06046,4.80486 -50.86924,5.43015 -33.80777,-0.62529 -46.56357,-3.83027 -50.86824,-5.43015"
         id="path44"
         style="stroke-width:0.264583" />
      <path
         fill-rule="nonzero"
         fill="#626262"
         fill-opacity="1"
         d="m 405.40873,595.28315 h 94.6671 c 1.4242,0 2.56934,1.01801 2.56934,2.28203 v 6.21358 c 0,1.26503 -1.14514,2.28203 -2.56934,2.28203 h -94.6671 c -1.42419,0 -2.56727,-1.017 -2.56727,-2.28203 v -6.21358 c 0,-1.26402 1.14308,-2.28203 2.56727,-2.28203"
         id="path45"
         style="stroke-width:0.264583" />
      <path
         fill-rule="nonzero"
         fill="#414141"
         fill-opacity="1"
         d="m 402.84146,603.77876 v 4.4018 c 0,1.26399 1.14308,2.28099 2.56727,2.28099 h 94.6671 c 1.4242,0 2.56934,-1.017 2.56934,-2.28099 v -4.4018 c 0,1.26503 -1.14514,2.28203 -2.56934,2.28203 h -94.6671 c -1.42419,0 -2.56727,-1.017 -2.56727,-2.28203"
         id="path46"
         style="stroke-width:0.264583" />
      <path
         fill-rule="nonzero"
         fill="#414141"
         fill-opacity="1"
         d="m 424.60137,438.01315 c 0,0 2.4443,-6.64247 2.4443,-9.36995 0,-2.72645 17.52346,-1.66812 17.52346,-1.66812 0,0 3.8499,11.55277 3.30729,11.46699 -0.53948,-0.0868 -23.27505,-0.42892 -23.27505,-0.42892"
         id="path47"
         style="stroke-width:0.264583" />
      <path
         fill-rule="nonzero"
         fill="#606060"
         fill-opacity="1"
         d="m 415.31717,542.4471 -2.32336,-4.33358 c 0,0 16.66047,-41.37216 1.84692,-76.34676 l 1.27744,-14.93552 c 0,0 -7.64916,-10.8376 -0.2036,-9.97874 7.69461,0.88885 35.42004,-0.60047 35.38802,-0.81441 l 31.43581,3.87159 c 0,0 6.59286,-2.9869 12.27934,0.24289 5.68544,3.22977 -2.33164,13.8896 -2.33164,13.8896 0,0 3.93464,4.62399 2.1301,10.80553 -1.8066,6.18154 -8.36332,3.56465 -8.36332,3.56465 0,0 -21.24313,-3.15847 -25.4899,13.16405 0,0 13.75524,9.20046 16.07034,14.62132 2.3151,5.41984 12.19975,11.54761 13.87822,17.28164 1.67947,5.73505 1.03145,16.97881 1.03145,16.97881 0,0 5.80223,6.2022 -0.15605,11.98893 h -76.46977"
         id="path48"
         style="stroke-width:0.264583" />
      <path
         fill-rule="nonzero"
         fill="#414141"
         fill-opacity="1"
         d="m 415.72129,451.47176 -0.88056,10.295 c 14.81355,34.9746 -1.84692,76.34676 -1.84692,76.34676 l 2.32336,4.33358 h 4.61679 c 3.79923,-8.83565 8.6496,-25.0145 9.13122,-50.69252 0.35656,-19.17608 -6.10401,-31.98358 -13.34389,-40.28282"
         id="path49"
         style="stroke-width:0.264583" />
      <path
         fill-rule="nonzero"
         fill="#414141"
         fill-opacity="1"
         d="m 415.25827,436.80496 c -6.31796,-0.14468 0.8599,10.02628 0.8599,10.02628 0,0 8.19174,4.08553 15.69,2.11873 0,0 -0.69247,-6.50608 -11.62825,-11.85871 -1.71461,-0.0403 -3.19566,-0.11472 -4.26535,-0.23876 -0.23257,-0.0269 -0.45167,-0.0424 -0.6563,-0.0475"
         id="path50"
         style="stroke-width:0.264583" />
      <path
         fill-rule="nonzero"
         fill="#606060"
         fill-opacity="1"
         d="m 431.80817,448.94997 c 0,0 -4.99195,-6.94119 -13.86893,-8.57417 0,0 3.59564,8.04397 13.86893,8.57417"
         id="path51"
         style="stroke-width:0.264583" />
      <path
         fill-rule="nonzero"
         fill="#414141"
         fill-opacity="1"
         d="m 438.09719,441.93954 15.80679,0.25218 c 0,0 -3.01895,5.33405 -8.84804,5.64202 -5.82912,0.30801 -6.95875,-5.8942 -6.95875,-5.8942"
         id="path52"
         style="stroke-width:0.264583" />
      <path
         fill-rule="nonzero"
         fill="#414141"
         fill-opacity="1"
         d="m 476.33257,461.94866 c -24.37061,0.32554 -28.17606,21.84156 -28.17606,21.84156 0,0 19.24844,8.88318 26.30228,28.64012 4.84209,13.55989 -0.29353,24.49255 -3.99253,30.01676 h 21.32068 c 5.95828,-5.78673 0.15605,-11.98893 0.15605,-11.98893 0,0 0.64802,-11.24376 -1.03145,-16.97881 -1.67847,-5.73403 -11.56312,-11.8618 -13.87822,-17.28164 -2.3151,-5.41983 -16.07034,-14.62132 -16.07034,-14.62132 4.24677,-16.32252 25.4899,-13.16405 25.4899,-13.16405 0,0 6.43475,2.56418 8.30752,-3.40445 -7.1696,-2.2407 -13.26329,-3.12849 -18.42783,-3.05924"
         id="path53"
         style="stroke-width:0.264583" />
      <path
         fill-rule="nonzero"
         fill="#414141"
         fill-opacity="1"
         d="m 489.68059,446.34649 c 0,0 1.98956,-1.47587 1.83658,1.66606 -0.15399,3.14193 -2.68304,1.18131 -1.83658,-1.66606"
         id="path54"
         style="stroke-width:0.264583" />
      <path
         fill-rule="nonzero"
         fill="#414141"
         fill-opacity="1"
         d="m 421.7571,565.57333 h 63.58681 V 557.8322 H 421.7571 v 7.74113"
         id="path55"
         style="stroke-width:0.264583" />
    </g>
  </g>
</svg>
