<?xml version="1.0" encoding="UTF-8" standalone="no"?>
<!-- Created with Inkscape (http://www.inkscape.org/) -->

<svg
   width="124.57858mm"
   height="312.0936mm"
   viewBox="0 0 124.57858 312.0936"
   version="1.1"
   id="svg1"
   xmlns="http://www.w3.org/2000/svg"
   xmlns:svg="http://www.w3.org/2000/svg">
  <defs
     id="defs1" />
  <g
     id="layer1"
     transform="translate(-97.710704,-3.9531962)">
    <g
       id="g1"
       transform="translate(424.20654,-33.353045)">
      <path
         fill-rule="nonzero"
         fill="#414141"
         fill-opacity="1"
         d="m -288.76869,145.53942 c 0,0 -2.80086,0.77306 -3.53984,3.40858 -0.73897,2.63445 3.85093,4.41833 3.85093,4.41833 16.80931,1.3477 31.70556,0.49196 48.50143,0 0,0 4.59094,-1.78388 3.85093,-4.41833 -0.73898,-2.63552 -3.53984,-3.40858 -3.53984,-3.40858 h -49.12361"
         id="path1"
         style="stroke-width:0.264583" />
      <path
         fill-rule="nonzero"
         fill="#606060"
         fill-opacity="1"
         d="m -287.85092,153.36633 v 12.53154 l 23.64404,0.35861 23.64403,-0.35861 v -12.53154 h -47.28807"
         id="path2"
         style="stroke-width:0.264583" />
      <path
         fill-rule="nonzero"
         fill="#414141"
         fill-opacity="1"
         d="m -277.97039,165.01522 c -3.40547,0.005 -6.45438,0.0486 -8.12043,0.16433 -5.33198,0.37105 -6.35207,3.6308 -6.35207,3.6308 v 4.30567 c 20.81734,3.65249 35.67018,1.61025 56.47201,0 v -4.30567 c 0,0 -1.02009,-3.25975 -6.35207,-3.6308 -4.07934,-0.28422 -16.29875,-0.13436 -21.88393,-0.0486 -3.30316,-0.0506 -8.83254,-0.12298 -13.76351,-0.11575"
         id="path3"
         style="stroke-width:0.264583" />
      <path
         fill-rule="nonzero"
         fill="#606060"
         fill-opacity="1"
         d="m -292.44185,173.11602 c -8.64444,2.21795 -12.03028,6.40995 -12.03028,6.40995 h 80.53049 c 0,0 -3.38584,-4.192 -12.02924,-6.40995 h -56.47097"
         id="path4"
         style="stroke-width:0.264583" />
      <path
         fill-rule="nonzero"
         fill="#414141"
         fill-opacity="1"
         d="m -290.32519,267.67252 -11.83493,11.02672 c 26.28056,5.08291 49.62488,1.85724 75.90751,0 l -11.83597,-11.02672 h -52.23661"
         id="path5"
         style="stroke-width:0.264583" />
      <path
         fill-rule="nonzero"
         fill="#606060"
         fill-opacity="1"
         d="m -302.16012,278.69924 v 10.39834 c 0,0 -12.08195,19.31251 -23.38152,28.35071 0,0 -6.20531,7.00011 13.03279,12.74961 h 96.60393 c 19.2381,-5.7495 13.03383,-12.74961 13.03383,-12.74961 -11.29957,-9.0382 -23.38152,-28.35071 -23.38152,-28.35071 v -10.39834 h -75.90751"
         id="path6"
         style="stroke-width:0.264583" />
      <path
         fill-rule="nonzero"
         fill="#414141"
         fill-opacity="1"
         d="m -324.93186,316.94394 c -0.20257,0.16949 -0.40721,0.3421 -0.60978,0.50435 0,0 -6.20531,7.00011 13.03279,12.74961 h 96.60393 c 19.2381,-5.7495 13.03383,-12.74961 13.03383,-12.74961 -0.20361,-0.16225 -0.40721,-0.33486 -0.61082,-0.50435 -5.13974,2.14871 -20.36465,6.45541 -60.72497,7.29361 -40.36033,-0.8382 -55.58524,-5.1449 -60.72498,-7.29361"
         id="path7"
         style="stroke-width:0.264583" />
      <path
         fill-rule="nonzero"
         fill="#626262"
         fill-opacity="1"
         d="m -320.713,329.00936 h 113.01326 c 1.69809,0 3.06545,1.36734 3.06545,3.06544 v 8.34781 c 0,1.69807 -1.36736,3.06544 -3.06545,3.06544 H -320.713 c -1.69808,0 -3.06544,-1.36737 -3.06544,-3.06544 v -8.34781 c 0,-1.6981 1.36736,-3.06544 3.06544,-3.06544"
         id="path8"
         style="stroke-width:0.264583" />
      <path
         fill-rule="nonzero"
         fill="#414141"
         fill-opacity="1"
         d="m -323.77844,340.42261 v 5.91177 c 0,1.6981 1.36736,3.06547 3.06544,3.06547 h 113.01326 c 1.69809,0 3.06441,-1.36737 3.06441,-3.06547 v -5.91177 c 0,1.69807 -1.36632,3.06544 -3.06441,3.06544 H -320.713 c -1.69808,0 -3.06544,-1.36737 -3.06544,-3.06544"
         id="path9"
         style="stroke-width:0.264583" />
      <path
         fill-rule="nonzero"
         fill="#414141"
         fill-opacity="1"
         d="m -304.47213,179.52597 c 1.50069,5.60173 21.5253,7.6481 21.5253,7.6481 14.02189,1.99059 23.51485,0.81754 37.47989,0 0,0 20.02461,-2.04637 21.5253,-7.6481 h -80.53049"
         id="path10"
         style="stroke-width:0.264583" />
      <path
         fill-rule="nonzero"
         fill="#606060"
         fill-opacity="1"
         d="m -281.89986,187.17407 c 0,27.58697 -8.42533,80.49845 -8.42533,80.49845 2.1146,1.28778 26.11831,1.18546 26.11831,1.18546 0,0 24.0037,0.10232 26.1183,-1.18546 0,0 -8.42533,-52.91148 -8.42533,-80.49845 h -35.38595"
         id="path11"
         style="stroke-width:0.264583" />
      <path
         fill-rule="nonzero"
         fill="#606060"
         fill-opacity="1"
         d="m -301.68883,100.03935 12.92014,45.50007 h 49.12361 l 12.92015,-45.50007 h -74.9639"
         id="path12"
         style="stroke-width:0.264583" />
      <path
         fill-rule="nonzero"
         fill="#606060"
         fill-opacity="1"
         d="m -265.99489,88.606461 -0.0434,0.137451 -13.51132,0.513662 -6.381,2.335768 -1.82108,6.337618 h 47.09066 l -1.82211,-6.337618 -6.381,-2.335768 -13.51132,-0.513662 -0.0444,-0.137451 -1.78697,0.06924 -1.78801,-0.06924"
         id="path13"
         style="stroke-width:0.264583" />
      <path
         fill-rule="nonzero"
         fill="#414141"
         fill-opacity="1"
         d="m -264.74225,95.565214 v 0.0032 c -34.48368,0.08991 -36.94658,4.471036 -36.94658,4.471036 h 74.9639 c 0,0 -2.46187,-4.38113 -36.94659,-4.471036 v -0.0032 c -0.18086,0 -0.35553,0 -0.53536,0 -0.17984,0 -0.35451,0 -0.53537,0"
         id="path14"
         style="stroke-width:0.264583" />
      <path
         fill-rule="nonzero"
         fill="#414141"
         fill-opacity="1"
         d="m -264.20688,37.306241 -11.12387,9.969394 v 9.51984 l -13.64258,-2.211758 v 22.844099 l 13.0514,-2.439141 -3.62665,14.268899 h 30.68443 l -3.62769,-14.268899 13.0514,2.439141 V 54.583717 l -13.64258,2.211758 v -9.51984 l -11.12386,-9.969394"
         id="path15"
         style="stroke-width:0.264583" />
    </g>
  </g>
</svg>
