<?xml version="1.0" encoding="UTF-8" standalone="no"?>
<!-- Created with Inkscape (http://www.inkscape.org/) -->

<svg
   width="92.736244mm"
   height="144.1142mm"
   viewBox="0 0 92.736244 144.1142"
   version="1.1"
   id="svg1"
   xmlns="http://www.w3.org/2000/svg"
   xmlns:svg="http://www.w3.org/2000/svg">
  <defs
     id="defs1" />
  <g
     id="layer1"
     transform="translate(-113.63187,-87.942904)">
    <g
       id="g1"
       transform="translate(-365.52853,-475.35501)">
      <path
         fill-rule="nonzero"
         fill="#414141"
         fill-opacity="1"
         d="m 506.08629,647.48192 -8.81084,7.30084 c 19.56366,1.91616 36.94141,0.69969 56.50714,0 l -8.81084,-7.30084 c -12.96148,0 -25.924,0 -38.88546,0"
         id="path65"
         style="stroke-width:0.264583" />
      <path
         fill-rule="nonzero"
         fill="#606060"
         fill-opacity="1"
         d="m 497.27545,654.78276 v 7.74112 c 0,0 -8.99377,14.37537 -17.40464,21.10362 0,0 -4.61986,5.21107 9.70278,9.49089 h 71.91086 c 14.32161,-4.27982 9.70172,-9.49089 9.70172,-9.49089 -8.41084,-6.72825 -17.40358,-21.10362 -17.40358,-21.10362 v -7.74112 h -56.50714"
         id="path66"
         style="stroke-width:0.264583" />
      <path
         fill-rule="nonzero"
         fill="#414141"
         fill-opacity="1"
         d="m 480.32352,683.25235 c -0.15092,0.12607 -0.30181,0.25423 -0.45271,0.37515 0,0 -4.61986,5.21107 9.70278,9.49089 h 71.91086 c 14.32161,-4.27982 9.70172,-9.49089 9.70172,-9.49089 -0.14986,-0.12092 -0.30385,-0.24908 -0.45474,-0.37515 -3.82614,1.59988 -15.15774,4.80486 -45.20346,5.43015 -30.04364,-0.62529 -41.37834,-3.83027 -45.20445,-5.43015"
         id="path67"
         style="stroke-width:0.264583" />
      <path
         fill-rule="nonzero"
         fill="#626262"
         fill-opacity="1"
         d="m 483.46441,692.23371 h 84.12612 c 1.26503,0 2.2841,1.01801 2.2841,2.28203 v 6.21358 c 0,1.26502 -1.01907,2.28203 -2.2841,2.28203 h -84.12612 c -1.26505,0 -2.281,-1.01701 -2.281,-2.28203 v -6.21358 c 0,-1.26402 1.01595,-2.28203 2.281,-2.28203"
         id="path68"
         style="stroke-width:0.264583" />
      <path
         fill-rule="nonzero"
         fill="#414141"
         fill-opacity="1"
         d="m 481.18341,700.72932 v 4.40179 c 0,1.264 1.01595,2.281 2.281,2.281 h 84.12612 c 1.26503,0 2.2841,-1.017 2.2841,-2.281 v -4.40179 c 0,1.26502 -1.01907,2.28203 -2.2841,2.28203 h -84.12612 c -1.26505,0 -2.281,-1.01701 -2.281,-2.28203"
         id="path69"
         style="stroke-width:0.264583" />
      <path
         fill-rule="nonzero"
         fill="#606060"
         fill-opacity="1"
         d="m 507.45363,614.22192 c 0,0 2.20659,18.52187 -1.36734,33.26 h 38.88237 c -3.57394,-14.73813 -1.3653,-33.26 -1.3653,-33.26 h -36.14973"
         id="path70"
         style="stroke-width:0.264583" />
      <path
         fill-rule="nonzero"
         fill="#606060"
         fill-opacity="1"
         d="m 549.2919,587.06286 c 0,13.12376 -10.63811,23.76393 -23.76393,23.76393 -13.12373,0 -23.76289,-10.64017 -23.76289,-23.76393 0,-6.30348 2.50323,-12.34757 6.95876,-16.80413 4.45865,-4.45659 10.50168,-6.96082 16.80413,-6.96082 6.30143,0 12.34758,2.50423 16.80311,6.96082 4.45865,4.45656 6.96082,10.50065 6.96082,16.80413"
         id="path71"
         style="stroke-width:0.264583" />
      <path
         fill-rule="nonzero"
         fill="#414141"
         fill-opacity="1"
         d="m 505.24187,607.08232 h 40.57427 c 1.97612,0 3.56878,1.59163 3.56878,3.56979 0,1.97818 -1.59266,3.56981 -3.56878,3.56981 h -40.57427 c -1.97919,0 -3.57188,-1.59163 -3.57188,-3.56981 0,-1.97816 1.59269,-3.56979 3.57188,-3.56979"
         id="path72"
         style="stroke-width:0.264583" />
    </g>
  </g>
</svg>
