<?xml version="1.0" encoding="UTF-8" standalone="no"?>
<!-- Created with Inkscape (http://www.inkscape.org/) -->

<svg
   width="113.29103mm"
   height="242.17232mm"
   viewBox="0 0 113.29103 242.17232"
   version="1.1"
   id="svg1"
   xmlns="http://www.w3.org/2000/svg"
   xmlns:svg="http://www.w3.org/2000/svg">
  <defs
     id="defs1" />
  <g
     id="layer1"
     transform="translate(-103.35448,-38.91385)">
    <g
       id="g1"
       transform="translate(-639.33094,-274.61739)">
      <path
         fill-rule="nonzero"
         fill="#606060"
         fill-opacity="1"
         d="m 783.08531,395.93448 c 0,26.04802 -7.73596,84.87442 -7.73596,84.87442 1.94096,1.21541 23.98199,1.11826 23.98199,1.11826 0,0 22.04,0.0971 23.97993,-1.11826 0,0 -7.73388,-58.8264 -7.73388,-84.87442 h -32.49208"
         id="path16"
         style="stroke-width:0.264583" />
      <path
         fill-rule="nonzero"
         fill="#414141"
         fill-opacity="1"
         d="m 775.57982,480.88846 -10.76317,10.52031 c 23.89932,4.84931 45.128,1.77249 69.03041,0 l -10.76315,-10.52031 h -47.50409"
         id="path17"
         style="stroke-width:0.264583" />
      <path
         fill-rule="nonzero"
         fill="#606060"
         fill-opacity="1"
         d="m 764.81562,491.40877 v 9.45676 c 0,0 -10.98641,17.56172 -21.26278,25.78243 0,0 -5.64204,6.36444 11.8525,11.59309 h 87.84993 c 17.4966,-5.22865 11.85354,-11.59309 11.85354,-11.59309 -10.27636,-8.22071 -21.26175,-25.78243 -21.26175,-25.78243 v -9.45676 h -69.03144"
         id="path18"
         style="stroke-width:0.264583" />
      <path
         fill-rule="nonzero"
         fill="#414141"
         fill-opacity="1"
         d="m 744.10784,526.18906 c -0.185,0.15296 -0.37,0.3111 -0.555,0.4589 0,0 -5.64204,6.36444 11.8525,11.59309 h 87.84993 c 17.4966,-5.22865 11.85354,-11.59309 11.85354,-11.59309 -0.18499,-0.1478 -0.36999,-0.30594 -0.55602,-0.4589 -4.67259,1.95337 -18.51774,5.86942 -55.22145,6.63216 -36.7037,-0.76274 -50.54988,-4.67879 -55.2235,-6.63216"
         id="path19"
         style="stroke-width:0.264583" />
      <path
         fill-rule="nonzero"
         fill="#626262"
         fill-opacity="1"
         d="m 747.9443,537.16099 h 102.77203 c 1.54512,0 2.78948,1.24333 2.78948,2.78744 v 7.59127 c 0,1.54408 -1.24436,2.78741 -2.78948,2.78741 H 747.9443 c -1.54409,0 -2.78743,-1.24333 -2.78743,-2.78741 v -7.59127 c 0,-1.54411 1.24334,-2.78744 2.78743,-2.78744"
         id="path20"
         style="stroke-width:0.264583" />
      <path
         fill-rule="nonzero"
         fill="#414141"
         fill-opacity="1"
         d="m 745.15687,547.5397 v 5.37641 c 0,1.54408 1.24334,2.78744 2.78743,2.78744 h 102.77203 c 1.54512,0 2.78948,-1.24336 2.78948,-2.78744 v -5.37641 c 0,1.54408 -1.24436,2.78741 -2.78948,2.78741 H 747.9443 c -1.54409,0 -2.78743,-1.24333 -2.78743,-2.78741"
         id="path21"
         style="stroke-width:0.264583" />
      <path
         fill-rule="nonzero"
         fill="#414141"
         fill-opacity="1"
         d="m 769.55952,388.50239 c -4.35736,1.8593 -1.78697,7.43209 -1.78697,7.43209 h 63.11657 c 0,0 2.57141,-5.57279 -1.78594,-7.43209 h -59.54366"
         id="path22"
         style="stroke-width:0.264583" />
      <path
         fill-rule="nonzero"
         fill="#606060"
         fill-opacity="1"
         d="m 777.6076,372.04861 h 43.44645 V 386.9645 H 777.6076 v -14.91589"
         id="path23"
         style="stroke-width:0.264583" />
      <path
         fill-rule="nonzero"
         fill="#414141"
         fill-opacity="1"
         d="m 779.07728,380.70131 c -2.35024,0 -4.25917,4.1031 -4.25917,4.1031 h 49.02439 c 0,0 -1.90685,-4.1031 -4.25709,-4.1031 h -40.50813"
         id="path24"
         style="stroke-width:0.264583" />
      <path
         fill-rule="nonzero"
         fill="#606060"
         fill-opacity="1"
         d="m 774.73336,384.39925 c -2.8546,0 -5.17384,4.10314 -5.17384,4.10314 h 59.54366 c 0,0 -2.32029,-4.10314 -5.17281,-4.10314 h -49.19701"
         id="path25"
         style="stroke-width:0.264583" />
      <path
         fill-rule="nonzero"
         fill="#414141"
         fill-opacity="1"
         d="m 781.41409,366.62465 h 35.83245 v 5.42396 h -35.83245 v -5.42396"
         id="path26"
         style="stroke-width:0.264583" />
      <path
         fill-rule="nonzero"
         fill="#414141"
         fill-opacity="1"
         d="m 785.80142,313.53124 c -2.20555,0 -4.56613,5.72884 -8.00365,5.12528 -3.43648,-0.6036 -4.82554,-6.56395 -6.80888,-4.20439 -1.98335,2.36262 -8.05532,6.9329 -8.05532,6.9329 v 2.94968 c 26.03355,3.48713 45.98169,1.39941 72.79451,0 v -2.94968 c 0,0 -6.07197,-4.57028 -8.05428,-6.9329 -1.98438,-2.35956 -3.37344,3.60079 -6.80993,4.20439 -3.43752,0.60356 -5.79705,-5.12528 -8.00364,-5.12528 -2.20658,0 -4.24057,5.40846 -5.95726,5.28651 -1.71669,-0.12094 -5.81876,-4.98472 -7.57163,-4.98472 -1.75389,0 -5.27926,4.86378 -6.99595,4.98472 -1.71773,0.12195 -4.32842,-5.28651 -6.53397,-5.28651"
         id="path27"
         style="stroke-width:0.264583" />
      <path
         fill-rule="nonzero"
         fill="#606060"
         fill-opacity="1"
         d="m 762.93357,324.33471 c 12.60594,4.78629 18.48052,42.50283 18.48052,42.50283 h 35.83245 c 0,0 5.87664,-37.71654 18.48154,-42.50283 h -72.79451"
         id="path28"
         style="stroke-width:0.264583" />
    </g>
  </g>
</svg>
