<?xml version="1.0" encoding="UTF-8" standalone="no"?>
<!-- Created with Inkscape (http://www.inkscape.org/) -->

<svg
   width="102.1105mm"
   height="176.61349mm"
   viewBox="0 0 102.1105 176.61349"
   version="1.1"
   id="svg1"
   xmlns="http://www.w3.org/2000/svg"
   xmlns:svg="http://www.w3.org/2000/svg">
  <defs
     id="defs1" />
  <g
     id="layer1"
     transform="translate(-108.94474,-71.693247)">
    <g
       id="g1"
       transform="translate(-44.77817,-317.50883)">
      <path
         fill-rule="nonzero"
         fill="#414141"
         fill-opacity="1"
         d="m 183.37032,499.82683 -9.70174,8.03878 c 21.54184,2.11047 40.67659,0.77102 62.21947,0 l -9.70278,-8.03878 c -14.27096,0 -28.54295,0 -42.81495,0"
         id="path56"
         style="stroke-width:0.264583" />
      <path
         fill-rule="nonzero"
         fill="#606060"
         fill-opacity="1"
         d="m 173.66858,507.86561 v 8.52353 c 0,0 -9.90119,15.82848 -19.16369,23.23785 0,0 -5.08598,5.73608 10.68358,10.45001 h 79.17968 c 15.76854,-4.71393 10.68359,-10.45001 10.68359,-10.45001 -9.26351,-7.40937 -19.16369,-23.23785 -19.16369,-23.23785 v -8.52353 h -62.21947"
         id="path57"
         style="stroke-width:0.264583" />
      <path
         fill-rule="nonzero"
         fill="#414141"
         fill-opacity="1"
         d="m 155.00514,539.21357 c -0.16743,0.13746 -0.33386,0.28009 -0.50025,0.41342 0,0 -5.08598,5.73608 10.68358,10.45001 h 79.17968 c 15.76854,-4.71393 10.68359,-10.45001 10.68359,-10.45001 -0.1664,-0.13333 -0.33383,-0.27596 -0.50025,-0.41342 -4.21161,1.76115 -16.69251,5.28961 -49.77368,5.97795 -33.08017,-0.68834 -45.56106,-4.2168 -49.77267,-5.97795"
         id="path58"
         style="stroke-width:0.264583" />
      <path
         fill-rule="nonzero"
         fill="#626262"
         fill-opacity="1"
         d="m 158.46332,549.10238 h 92.62999 c 1.39218,0 2.51354,1.12035 2.51354,2.51251 v 6.84196 c 0,1.39216 -1.12136,2.51251 -2.51354,2.51251 h -92.62999 c -1.39216,0 -2.51148,-1.12035 -2.51148,-2.51251 v -6.84196 c 0,-1.39216 1.11932,-2.51251 2.51148,-2.51251"
         id="path59"
         style="stroke-width:0.264583" />
      <path
         fill-rule="nonzero"
         fill="#414141"
         fill-opacity="1"
         d="m 155.95184,558.45685 v 4.84518 c 0,1.39216 1.11932,2.51355 2.51148,2.51355 h 92.62999 c 1.39218,0 2.51148,-1.12139 2.51148,-2.51355 v -4.84518 c 0,1.39216 -1.1193,2.51251 -2.51148,2.51251 h -92.62999 c -1.39216,0 -2.51148,-1.12035 -2.51148,-2.51251"
         id="path60"
         style="stroke-width:0.264583" />
      <path
         fill-rule="nonzero"
         fill="#606060"
         fill-opacity="1"
         d="m 186.66727,426.95272 -1.18028,72.87514 h 38.58162 l -1.18235,-72.87514 h -36.21899"
         id="path61"
         style="stroke-width:0.264583" />
      <path
         fill-rule="nonzero"
         fill="#414141"
         fill-opacity="1"
         d="M 173.51459,422.17162 H 236.041 v 4.7811 h -62.52641 v -4.7811"
         id="path62"
         style="stroke-width:0.264583" />
      <path
         fill-rule="nonzero"
         fill="#606060"
         fill-opacity="1"
         d="m 171.39277,418.59355 2.12182,3.57807 H 236.041 l 2.12183,-3.57807 h -66.77006"
         id="path63"
         style="stroke-width:0.264583" />
      <path
         fill-rule="nonzero"
         fill="#414141"
         fill-opacity="1"
         d="m 171.39277,389.20208 v 29.39147 h 66.77006 v -29.39147 h -12.25558 v 18.00301 h -5.9159 v -18.00301 h -12.2556 v 18.00301 h -5.9159 v -18.00301 h -12.25558 v 18.00301 h -5.91593 v -18.00301 h -12.25557"
         id="path64"
         style="stroke-width:0.264583" />
    </g>
  </g>
</svg>
