<?xml version="1.0" encoding="UTF-8" standalone="no"?>
<!-- Created with Inkscape (http://www.inkscape.org/) -->

<svg
   width="92.738411mm"
   height="205.52132mm"
   viewBox="0 0 92.738411 205.52132"
   version="1.1"
   id="svg1"
   xmlns="http://www.w3.org/2000/svg"
   xmlns:svg="http://www.w3.org/2000/svg">
  <defs
     id="defs1" />
  <g
     id="layer1"
     transform="translate(-113.63079,-57.23934)">
    <g
       id="g1"
       transform="translate(-374.52547,280.81226)">
      <path
         fill-rule="nonzero"
         fill="#414141"
         fill-opacity="1"
         d="m 515.08419,-77.981793 -8.81084,7.300833 c 19.56367,1.916165 36.94142,0.69969 56.50508,0 l -8.81081,-7.300833 c -12.96149,0 -25.92401,0 -38.88343,0"
         id="path29"
         style="stroke-width:0.264583" />
      <path
         fill-rule="nonzero"
         fill="#606060"
         fill-opacity="1"
         d="m 506.27335,-70.68096 v 7.741126 c 0,0 -8.99583,14.375368 -17.40667,21.103616 0,0 -4.61989,5.211074 9.70277,9.490895 h 71.91291 c 14.31954,-4.279821 9.70277,-9.490895 9.70277,-9.490895 -8.41396,-6.728248 -17.4067,-21.103616 -17.4067,-21.103616 v -7.741126 h -56.50508"
         id="path30"
         style="stroke-width:0.264583" />
      <path
         fill-rule="nonzero"
         fill="#414141"
         fill-opacity="1"
         d="m 489.32142,-42.211371 c -0.14986,0.126074 -0.30385,0.254238 -0.45474,0.375153 0,0 -4.61989,5.211074 9.70277,9.490895 h 71.91291 c 14.31954,-4.279821 9.70277,-9.490895 9.70277,-9.490895 -0.15296,-0.120915 -0.30385,-0.249079 -0.45474,-0.375153 -3.82614,1.599883 -15.16084,4.80486 -45.20448,5.43015 -30.04365,-0.62529 -41.37835,-3.830267 -45.20449,-5.43015"
         id="path31"
         style="stroke-width:0.264583" />
      <path
         fill-rule="nonzero"
         fill="#626262"
         fill-opacity="1"
         d="m 492.46232,-33.23001 h 84.12718 c 1.26502,0 2.28099,1.018011 2.28099,2.282031 v 6.213581 c 0,1.265026 -1.01597,2.282031 -2.28099,2.282031 h -84.12718 c -1.264,0 -2.28307,-1.017005 -2.28307,-2.282031 v -6.213581 c 0,-1.26402 1.01907,-2.282031 2.28307,-2.282031"
         id="path32"
         style="stroke-width:0.264583" />
      <path
         fill-rule="nonzero"
         fill="#414141"
         fill-opacity="1"
         d="m 490.17925,-24.734398 v 4.401793 c 0,1.263994 1.01907,2.281 2.28307,2.281 h 84.12718 c 1.26502,0 2.28099,-1.017006 2.28099,-2.281 v -4.401793 c 0,1.265026 -1.01597,2.282031 -2.28099,2.282031 h -84.12718 c -1.264,0 -2.28307,-1.017005 -2.28307,-2.282031"
         id="path33"
         style="stroke-width:0.264583" />
      <path
         fill-rule="nonzero"
         fill="#606060"
         fill-opacity="1"
         d="m 517.95018,-125.24611 c 0,0 0.35449,31.431677 -2.86599,47.264317 h 38.88343 c -3.22048,-15.83264 -2.86599,-47.264317 -2.86599,-47.264317 h -33.15145"
         id="path34"
         style="stroke-width:0.264583" />
      <path
         fill-rule="nonzero"
         fill="#606060"
         fill-opacity="1"
         d="m 518.43903,-148.25864 h 32.17066 v 9.63556 h -32.17066 v -9.63556"
         id="path35"
         style="stroke-width:0.264583" />
      <path
         fill-rule="nonzero"
         fill="#414141"
         fill-opacity="1"
         d="m 510.56045,-139.85812 h 47.92885 c 1.8252,0 3.29385,1.46968 3.29385,3.29385 0,1.8252 -1.46865,3.29488 -3.29385,3.29488 h -47.92885 c -1.82316,0 -3.29491,-1.46968 -3.29491,-3.29488 0,-1.82417 1.47175,-3.29385 3.29491,-3.29385"
         id="path36"
         style="stroke-width:0.264583" />
      <path
         fill-rule="nonzero"
         fill="#606060"
         fill-opacity="1"
         d="m 512.14173,-133.33554 c -4.5103,-0.0217 -12.76305,0.21085 -13.77899,3.58429 -1.01595,3.3724 3.80751,4.50514 3.80751,4.50514 h 64.71131 c 0,0 4.82346,-1.13274 3.80752,-4.50514 -1.01598,-3.37344 -9.2687,-3.60598 -13.779,-3.58429 h -44.76835"
         id="path37"
         style="stroke-width:0.264583" />
      <path
         fill-rule="nonzero"
         fill="#606060"
         fill-opacity="1"
         d="m 525.21278,-213.23867 c 0,0 -20.74396,26.25577 -21.41781,40.69829 -0.67283,14.44254 10.42416,18.16015 10.42416,18.16015 h 40.61148 c 0,0 11.09906,-3.71761 10.42416,-18.16015 -0.26458,-5.66269 -3.62251,-13.13408 -7.59642,-20.13416 l -26.85212,21.66173 -6.22286,-7.71427 27.84739,-22.46683 c -4.56406,-6.94015 -8.5938,-12.04476 -8.5938,-12.04476 h -18.62418"
         id="path38"
         style="stroke-width:0.264583" />
      <path
         fill-rule="nonzero"
         fill="#414141"
         fill-opacity="1"
         d="m 510.56045,-154.8474 h 47.92885 c 1.8252,0 3.29385,1.46968 3.29385,3.2949 0,1.82521 -1.46865,3.29386 -3.29385,3.29386 h -47.92885 c -1.82316,0 -3.29491,-1.46865 -3.29491,-3.29386 0,-1.82522 1.47175,-3.2949 3.29491,-3.2949"
         id="path39"
         style="stroke-width:0.264583" />
      <path
         fill-rule="nonzero"
         fill="#414141"
         fill-opacity="1"
         d="m 524.17821,-223.57292 h 20.69539 c 2.98482,0 5.38673,2.40297 5.38673,5.38675 0,2.98485 -2.40191,5.38676 -5.38673,5.38676 h -20.69539 c -2.98482,0 -5.38676,-2.40191 -5.38676,-5.38676 0,-2.98378 2.40194,-5.38675 5.38676,-5.38675"
         id="path40"
         style="stroke-width:0.264583" />
      <path
         fill-rule="nonzero"
         fill="#414141"
         fill-opacity="1"
         d="m 510.56045,-125.59026 h 47.92885 c 1.8252,0 3.29385,1.46966 3.29385,3.29385 0,1.82521 -1.46865,3.29386 -3.29385,3.29386 h -47.92885 c -1.82316,0 -3.29491,-1.46865 -3.29491,-3.29386 0,-1.82419 1.47175,-3.29385 3.29491,-3.29385"
         id="path41"
         style="stroke-width:0.264583" />
    </g>
  </g>
</svg>
