<?xml version="1.0" encoding="UTF-8" standalone="no"?>
<!-- Created with Inkscape (http://www.inkscape.org/) -->

<svg
   width="92.738411mm"
   height="205.52026mm"
   viewBox="0 0 92.738411 205.52026"
   version="1.1"
   id="svg1"
   xmlns="http://www.w3.org/2000/svg"
   xmlns:svg="http://www.w3.org/2000/svg">
  <defs
     id="defs1" />
  <g
     id="layer1"
     transform="translate(-113.63079,-57.239862)">
    <g
       id="g1"
       transform="translate(-210.74839,70.998198)">
      <path
         fill-rule="nonzero"
         fill="#8e5a2e"
         fill-opacity="1"
         d="m 351.30711,131.83176 -8.81084,7.2998 c 19.56366,1.91513 36.94142,0.70072 56.50508,0 l -8.81081,-7.2998 c -12.96149,0 -25.92401,0 -38.88343,0"
         id="path101"
         style="stroke-width:0.264583" />
      <path
         fill-rule="nonzero"
         fill="#b38658"
         fill-opacity="1"
         d="m 342.49627,139.13156 v 7.74112 c 0,0 -8.99583,14.37534 -17.40667,21.10362 0,0 -4.61989,5.21208 9.70277,9.49089 h 71.9129 c 14.31954,-4.27881 9.70278,-9.49089 9.70278,-9.49089 -8.41397,-6.72828 -17.4067,-21.10362 -17.4067,-21.10362 v -7.74112 h -56.50508"
         id="path102"
         style="stroke-width:0.264583" />
      <path
         fill-rule="nonzero"
         fill="#8e5a2e"
         fill-opacity="1"
         d="m 325.54434,167.60011 c -0.14986,0.12711 -0.30385,0.25734 -0.45474,0.37619 0,0 -4.61989,5.21208 9.70277,9.49089 h 71.9129 c 14.31954,-4.27881 9.70278,-9.49089 9.70278,-9.49089 -0.15296,-0.11885 -0.30385,-0.24908 -0.45474,-0.37619 -3.82614,1.60092 -15.16084,4.80486 -45.20449,5.42912 -30.04365,-0.62426 -41.37834,-3.8282 -45.20448,-5.42912"
         id="path103"
         style="stroke-width:0.264583" />
      <path
         fill-rule="nonzero"
         fill="#b38658"
         fill-opacity="1"
         d="m 328.68523,176.58354 h 84.12718 c 1.26503,0 2.281,1.01801 2.281,2.27997 v 6.21564 c 0,1.26399 -1.01597,2.27994 -2.281,2.27994 h -84.12718 c -1.26399,0 -2.28306,-1.01595 -2.28306,-2.27994 v -6.21564 c 0,-1.26196 1.01907,-2.27997 2.28306,-2.27997"
         id="path104"
         style="stroke-width:0.264583" />
      <path
         fill-rule="nonzero"
         fill="#8e5a2e"
         fill-opacity="1"
         d="m 326.40217,185.07915 v 4.39973 c 0,1.26503 1.01907,2.28306 2.28306,2.28306 h 84.12718 c 1.26503,0 2.281,-1.01803 2.281,-2.28306 v -4.39973 c 0,1.26399 -1.01597,2.27994 -2.281,2.27994 h -84.12718 c -1.26399,0 -2.28306,-1.01595 -2.28306,-2.27994"
         id="path105"
         style="stroke-width:0.264583" />
      <path
         fill-rule="nonzero"
         fill="#b38658"
         fill-opacity="1"
         d="m 354.1731,84.566404 c 0,0 0.35449,31.432716 -2.86599,47.265356 h 38.88343 c -3.22048,-15.83264 -2.866,-47.265356 -2.866,-47.265356 H 354.1731"
         id="path106"
         style="stroke-width:0.264583" />
      <path
         fill-rule="nonzero"
         fill="#b38658"
         fill-opacity="1"
         d="m 354.66504,61.555928 h 32.16756 v 9.632487 h -32.16756 v -9.632487"
         id="path107"
         style="stroke-width:0.264583" />
      <path
         fill-rule="nonzero"
         fill="#8e5a2e"
         fill-opacity="1"
         d="m 346.78337,69.956449 h 47.92884 c 1.82521,0 3.29385,1.467612 3.29385,3.293856 0,1.823146 -1.46864,3.293856 -3.29385,3.293856 h -47.92884 c -1.82317,0 -3.29491,-1.47071 -3.29491,-3.293856 0,-1.826244 1.47174,-3.293856 3.29491,-3.293856"
         id="path108"
         style="stroke-width:0.264583" />
      <path
         fill-rule="nonzero"
         fill="#b38658"
         fill-opacity="1"
         d="m 348.36465,76.478015 c -4.5103,-0.02169 -12.76305,0.211873 -13.779,3.582218 -1.01595,3.373437 3.80751,4.506171 3.80751,4.506171 h 64.71132 c 0,0 4.82346,-1.132734 3.80751,-4.506171 -1.01597,-3.370345 -9.2687,-3.603921 -13.779,-3.582218 h -44.76834"
         id="path109"
         style="stroke-width:0.264583" />
      <path
         fill-rule="nonzero"
         fill="#b38658"
         fill-opacity="1"
         d="m 361.4357,-3.4261503 c 0,0 -20.74397,26.2567943 -21.41781,40.6982903 -0.67283,14.443564 10.42416,18.161166 10.42416,18.161166 h 40.61148 c 0,0 11.09906,-3.717602 10.42416,-18.161166 -0.26458,-5.662703 -3.62252,-13.134081 -7.59643,-20.135205 l -26.85211,21.664827 -6.22287,-7.71529 27.8474,-22.4689135 c -4.56406,-6.9401451 -8.5938,-12.0437088 -8.5938,-12.0437088 H 361.4357"
         id="path110"
         style="stroke-width:0.264583" />
      <path
         fill-rule="nonzero"
         fill="#8e5a2e"
         fill-opacity="1"
         d="m 346.78337,54.965118 h 47.92884 c 1.82521,0 3.29385,1.47071 3.29385,3.293856 0,1.82521 -1.46864,3.296954 -3.29385,3.296954 h -47.92884 c -1.82317,0 -3.29491,-1.471744 -3.29491,-3.296954 0,-1.823146 1.47174,-3.293856 3.29491,-3.293856"
         id="path111"
         style="stroke-width:0.264583" />
      <path
         fill-rule="nonzero"
         fill="#8e5a2e"
         fill-opacity="1"
         d="m 360.40113,-13.758336 h 20.69539 c 2.98481,0 5.38673,2.402954 5.38673,5.3846838 0,2.9837988 -2.40192,5.3867526 -5.38673,5.3867526 h -20.69539 c -2.98482,0 -5.38676,-2.4029538 -5.38676,-5.3867526 0,-2.9817298 2.40194,-5.3846838 5.38676,-5.3846838"
         id="path112"
         style="stroke-width:0.264583" />
      <path
         fill-rule="nonzero"
         fill="#8e5a2e"
         fill-opacity="1"
         d="m 346.78337,84.222234 h 47.92884 c 1.82521,0 3.29385,1.46865 3.29385,3.293878 0,1.826233 -1.46864,3.293851 -3.29385,3.293851 h -47.92884 c -1.82317,0 -3.29491,-1.467618 -3.29491,-3.293851 0,-1.825228 1.47174,-3.293878 3.29491,-3.293878"
         id="path113"
         style="stroke-width:0.264583" />
    </g>
  </g>
</svg>
