<?xml version="1.0" encoding="UTF-8" standalone="no"?>
<!-- Created with Inkscape (http://www.inkscape.org/) -->

<svg
   width="102.1105mm"
   height="176.61145mm"
   viewBox="0 0 102.1105 176.61145"
   version="1.1"
   id="svg1"
   xmlns="http://www.w3.org/2000/svg"
   xmlns:svg="http://www.w3.org/2000/svg">
  <defs
     id="defs1" />
  <g
     id="layer1"
     transform="translate(-108.94474,-71.694277)">
    <g
       id="g1"
       transform="translate(424.32808,-33.345305)">
      <path
         fill-rule="nonzero"
         fill="#8e5a2e"
         fill-opacity="1"
         d="m -285.73593,215.66125 -9.70174,8.04084 c 21.54184,2.10841 40.67659,0.76999 62.21947,0 l -9.70278,-8.04084 c -14.27096,0 -28.54295,0 -42.81495,0"
         id="path128"
         style="stroke-width:0.264583" />
      <path
         fill-rule="nonzero"
         fill="#b38658"
         fill-opacity="1"
         d="m -295.43767,223.70209 v 8.5225 c 0,0 -9.90119,15.82951 -19.16369,23.23785 0,0 -5.08598,5.73608 10.68358,10.44897 h 79.17968 c 15.76854,-4.71289 10.68359,-10.44897 10.68359,-10.44897 -9.26351,-7.40834 -19.16369,-23.23785 -19.16369,-23.23785 v -8.5225 h -62.21947"
         id="path129"
         style="stroke-width:0.264583" />
      <path
         fill-rule="nonzero"
         fill="#8e5a2e"
         fill-opacity="1"
         d="m -314.10111,255.04696 c -0.16743,0.14055 -0.33386,0.28112 -0.50025,0.41548 0,0 -5.08598,5.73608 10.68358,10.44897 h 79.17968 c 15.76854,-4.71289 10.68359,-10.44897 10.68359,-10.44897 -0.1664,-0.13436 -0.33383,-0.27493 -0.50025,-0.41548 -4.21161,1.76215 -16.69251,5.29167 -49.77368,5.97998 -33.08017,-0.68831 -45.56106,-4.21783 -49.77267,-5.97998"
         id="path130"
         style="stroke-width:0.264583" />
      <path
         fill-rule="nonzero"
         fill="#b38658"
         fill-opacity="1"
         d="m -310.64293,264.93783 h 92.62999 c 1.39218,0 2.51354,1.12138 2.51354,2.51354 v 6.84196 c 0,1.39113 -1.12136,2.51045 -2.51354,2.51045 h -92.62999 c -1.39216,0 -2.51148,-1.11932 -2.51148,-2.51045 v -6.84196 c 0,-1.39216 1.11932,-2.51354 2.51148,-2.51354"
         id="path131"
         style="stroke-width:0.264583" />
      <path
         fill-rule="nonzero"
         fill="#8e5a2e"
         fill-opacity="1"
         d="m -313.15441,274.29333 v 4.84416 c 0,1.39215 1.11932,2.51354 2.51148,2.51354 h 92.62999 c 1.39218,0 2.51354,-1.12139 2.51354,-2.51354 v -4.84416 c 0,1.39113 -1.12136,2.51045 -2.51354,2.51045 h -92.62999 c -1.39216,0 -2.51148,-1.11932 -2.51148,-2.51045"
         id="path132"
         style="stroke-width:0.264583" />
      <path
         fill-rule="nonzero"
         fill="#b38658"
         fill-opacity="1"
         d="m -282.43898,142.78714 -1.18028,72.8772 h 38.58162 l -1.18235,-72.8772 h -36.21899"
         id="path133"
         style="stroke-width:0.264583" />
      <path
         fill-rule="nonzero"
         fill="#8e5a2e"
         fill-opacity="1"
         d="m -295.59166,138.00914 h 62.52641 v 4.778 h -62.52641 v -4.778"
         id="path134"
         style="stroke-width:0.264583" />
      <path
         fill-rule="nonzero"
         fill="#b38658"
         fill-opacity="1"
         d="m -297.71348,134.429 2.12182,3.57704 h 62.52641 l 2.12183,-3.57704 h -66.77006"
         id="path135"
         style="stroke-width:0.264583" />
      <path
         fill-rule="nonzero"
         fill="#8e5a2e"
         fill-opacity="1"
         d="M -297.71348,105.03958 V 134.429 h 66.77006 V 105.03958 H -243.199 v 18.002 h -5.9159 v -18.002 h -12.2556 v 18.002 h -5.9159 v -18.002 h -12.25558 v 18.002 h -5.91593 v -18.002 h -12.25557"
         id="path136"
         style="stroke-width:0.264583" />
    </g>
  </g>
</svg>
