<?xml version="1.0" encoding="UTF-8" standalone="no"?>
<!-- Created with Inkscape (http://www.inkscape.org/) -->

<svg
   width="92.736244mm"
   height="144.11523mm"
   viewBox="0 0 92.736244 144.11523"
   version="1.1"
   id="svg1"
   xmlns="http://www.w3.org/2000/svg"
   xmlns:svg="http://www.w3.org/2000/svg">
  <defs
     id="defs1" />
  <g
     id="layer1"
     transform="translate(-113.63187,-87.942378)">
    <g
       id="g1"
       transform="translate(424.25272,-33.23679)">
      <path
         fill-rule="nonzero"
         fill="#8e5a2e"
         fill-opacity="1"
         d="m -283.69496,205.36423 -8.81084,7.2998 c 19.56366,1.91513 36.94141,0.70072 56.50714,0 l -8.81084,-7.2998 c -12.96148,0 -25.924,0 -38.88546,0"
         id="path137"
         style="stroke-width:0.264583" />
      <path
         fill-rule="nonzero"
         fill="#b38658"
         fill-opacity="1"
         d="m -292.5058,212.66403 v 7.74112 c 0,0 -8.99377,14.37534 -17.40464,21.10362 0,0 -4.61986,5.21208 9.70278,9.49089 h 71.91086 c 14.32161,-4.27881 9.70172,-9.49089 9.70172,-9.49089 -8.41084,-6.72828 -17.40358,-21.10362 -17.40358,-21.10362 v -7.74112 h -56.50714"
         id="path138"
         style="stroke-width:0.264583" />
      <path
         fill-rule="nonzero"
         fill="#8e5a2e"
         fill-opacity="1"
         d="m -309.45773,241.13258 c -0.15092,0.12711 -0.30181,0.25734 -0.45271,0.37619 0,0 -4.61986,5.21208 9.70278,9.49089 h 71.91086 c 14.32161,-4.27881 9.70172,-9.49089 9.70172,-9.49089 -0.14986,-0.11885 -0.30385,-0.24908 -0.45474,-0.37619 -3.82614,1.60092 -15.15774,4.80486 -45.20346,5.42912 -30.04364,-0.62426 -41.37834,-3.8282 -45.20445,-5.42912"
         id="path139"
         style="stroke-width:0.264583" />
      <path
         fill-rule="nonzero"
         fill="#b38658"
         fill-opacity="1"
         d="m -306.31684,250.11601 h 84.12612 c 1.26503,0 2.2841,1.01801 2.2841,2.27997 v 6.21564 c 0,1.26399 -1.01907,2.27994 -2.2841,2.27994 h -84.12612 c -1.26505,0 -2.281,-1.01595 -2.281,-2.27994 v -6.21564 c 0,-1.26196 1.01595,-2.27997 2.281,-2.27997"
         id="path140"
         style="stroke-width:0.264583" />
      <path
         fill-rule="nonzero"
         fill="#8e5a2e"
         fill-opacity="1"
         d="m -308.59784,258.61162 v 4.39973 c 0,1.26503 1.01595,2.28306 2.281,2.28306 h 84.12612 c 1.26503,0 2.2841,-1.01803 2.2841,-2.28306 v -4.39973 c 0,1.26399 -1.01907,2.27994 -2.2841,2.27994 h -84.12612 c -1.26505,0 -2.281,-1.01595 -2.281,-2.27994"
         id="path141"
         style="stroke-width:0.264583" />
      <path
         fill-rule="nonzero"
         fill="#b38658"
         fill-opacity="1"
         d="m -282.32762,172.10319 c 0,0 2.20659,18.52083 -1.36734,33.26104 h 38.88237 c -3.57394,-14.74021 -1.3653,-33.26104 -1.3653,-33.26104 h -36.14973"
         id="path142"
         style="stroke-width:0.264583" />
      <path
         fill-rule="nonzero"
         fill="#b38658"
         fill-opacity="1"
         d="m -240.48935,144.94413 c 0,6.30143 -2.50217,12.34755 -6.96082,16.80311 -4.45553,4.45865 -10.50168,6.96082 -16.80311,6.96082 -13.12373,0 -23.76289,-10.6381 -23.76289,-23.76393 0,-13.12375 10.63916,-23.76496 23.76289,-23.76496 6.30143,0 12.34758,2.50527 16.80311,6.96082 4.45865,4.45554 6.96082,10.50168 6.96082,16.80414"
         id="path143"
         style="stroke-width:0.264583" />
      <path
         fill-rule="nonzero"
         fill="#8e5a2e"
         fill-opacity="1"
         d="m -284.53938,164.9646 h 40.57427 c 1.97612,0 3.56878,1.59062 3.56878,3.56878 0,1.97715 -1.59266,3.56981 -3.56878,3.56981 h -40.57427 c -1.97919,0 -3.57188,-1.59266 -3.57188,-3.56981 0,-1.97816 1.59269,-3.56878 3.57188,-3.56878"
         id="path144"
         style="stroke-width:0.264583" />
    </g>
  </g>
</svg>
