<?xml version="1.0" encoding="UTF-8" standalone="no"?>
<!-- Created with Inkscape (http://www.inkscape.org/) -->

<svg
   width="104.3572mm"
   height="183.69054mm"
   viewBox="0 0 104.3572 183.69054"
   version="1.1"
   id="svg1"
   xmlns="http://www.w3.org/2000/svg"
   xmlns:svg="http://www.w3.org/2000/svg">
  <defs
     id="defs1" />
  <g
     id="layer1"
     transform="translate(-107.82141,-68.154741)">
    <g
       id="g1"
       transform="translate(-3.8327882,-34.768176)">
      <path
         fill-rule="nonzero"
         fill="#b38658"
         fill-opacity="1"
         d="m 125.59842,218.59692 6.43993,15.38613 c 27.02677,0.83302 46.69587,1.45728 63.58681,0 l 6.44303,-15.38613 -38.23539,-1.45729 -38.23438,1.45729"
         id="path114"
         style="stroke-width:0.264583" />
      <path
         fill-rule="nonzero"
         fill="#b38658"
         fill-opacity="1"
         d="m 132.04042,233.98305 v 7.74113 c 0,0 -10.12238,14.37534 -19.58639,21.10362 0,0 -5.1997,5.21208 10.91612,9.49089 h 80.92321 c 16.11583,-4.27881 10.91925,-9.49089 10.91925,-9.49089 -9.46713,-6.72828 -19.58745,-21.10362 -19.58745,-21.10362 v -7.74113 h -63.58474"
         id="path115"
         style="stroke-width:0.264583" />
      <path
         fill-rule="nonzero"
         fill="#8e5a2e"
         fill-opacity="1"
         d="m 112.96457,262.45161 c -0.16949,0.12711 -0.34105,0.25734 -0.51054,0.37619 0,0 -5.1997,5.21208 10.91612,9.49089 h 80.92321 c 16.11583,-4.27881 10.91925,-9.49089 10.91925,-9.49089 -0.17158,-0.11885 -0.34107,-0.24908 -0.51057,-0.37619 -4.30776,1.60092 -17.06046,4.80486 -50.86924,5.42912 -33.80777,-0.62426 -46.56357,-3.8282 -50.86823,-5.42912"
         id="path116"
         style="stroke-width:0.264583" />
      <path
         fill-rule="nonzero"
         fill="#b38658"
         fill-opacity="1"
         d="m 115.68999,271.43504 h 94.66709 c 1.4242,0 2.56935,1.01801 2.56935,2.27996 v 6.21565 c 0,1.26399 -1.14515,2.27994 -2.56935,2.27994 h -94.66709 c -1.4242,0 -2.56728,-1.01595 -2.56728,-2.27994 V 273.715 c 0,-1.26195 1.14308,-2.27996 2.56728,-2.27996"
         id="path117"
         style="stroke-width:0.264583" />
      <path
         fill-rule="nonzero"
         fill="#8e5a2e"
         fill-opacity="1"
         d="m 113.12271,279.93065 v 4.39973 c 0,1.26502 1.14308,2.28306 2.56728,2.28306 h 94.66709 c 1.4242,0 2.56935,-1.01804 2.56935,-2.28306 v -4.39973 c 0,1.26399 -1.14515,2.27994 -2.56935,2.27994 h -94.66709 c -1.4242,0 -2.56728,-1.01595 -2.56728,-2.27994"
         id="path118"
         style="stroke-width:0.264583" />
      <path
         fill-rule="nonzero"
         fill="#8e5a2e"
         fill-opacity="1"
         d="m 134.88262,114.16401 c 0,0 2.4443,-6.64145 2.4443,-9.36894 0,-2.72851 17.52346,-1.67018 17.52346,-1.67018 0,0 3.8499,11.55485 3.3073,11.467 -0.53949,-0.0847 -23.27506,-0.42788 -23.27506,-0.42788"
         id="path119"
         style="stroke-width:0.264583" />
      <path
         fill-rule="nonzero"
         fill="#b38658"
         fill-opacity="1"
         d="m 125.59842,218.59692 -2.32336,-4.33361 c 0,0 16.66047,-41.37006 1.84693,-76.34571 l 1.27743,-14.93552 c 0,0 -7.64606,-10.83758 -0.2036,-9.97769 7.69462,0.88884 35.42004,-0.60048 35.38802,-0.81442 l 31.43581,3.87057 c 0,0 6.59286,-2.9869 12.27934,0.24391 5.68545,3.22977 -2.33164,13.88752 -2.33164,13.88752 0,0 3.93465,4.62504 2.13011,10.80555 -1.8066,6.1836 -8.36332,3.5667 -8.36332,3.5667 0,0 -21.24313,-3.1595 -25.48991,13.16302 0,0 13.75524,9.20254 16.07034,14.62134 2.31511,5.42086 12.19976,11.54864 13.87822,17.28163 1.67947,5.73402 1.03145,16.97881 1.03145,16.97881 0,0 5.80223,6.20221 -0.15605,11.9879 h -76.46977"
         id="path120"
         style="stroke-width:0.264583" />
      <path
         fill-rule="nonzero"
         fill="#8e5a2e"
         fill-opacity="1"
         d="m 126.00255,127.62262 -0.88056,10.29498 c 14.81354,34.97565 -1.84693,76.34571 -1.84693,76.34571 l 2.32336,4.33361 h 4.6168 c 3.79923,-8.83462 8.6496,-25.01347 9.13122,-50.69149 0.35655,-19.17402 -6.10402,-31.98254 -13.34389,-40.28281"
         id="path121"
         style="stroke-width:0.264583" />
      <path
         fill-rule="nonzero"
         fill="#8e5a2e"
         fill-opacity="1"
         d="m 125.53953,112.95685 c -6.31796,-0.14573 0.85989,10.02523 0.85989,10.02523 0,0 8.19174,4.08554 15.69,2.11976 0,0 -0.69246,-6.50606 -11.62825,-11.8587 -1.7146,-0.0424 -3.19566,-0.11679 -4.26535,-0.23875 -0.23256,-0.0289 -0.4496,-0.0424 -0.65629,-0.0475"
         id="path122"
         style="stroke-width:0.264583" />
      <path
         fill-rule="nonzero"
         fill="#b38658"
         fill-opacity="1"
         d="m 142.08942,125.10184 c 0,0 -4.99194,-6.94014 -13.86892,-8.57518 0,0 3.59563,8.04292 13.86892,8.57518"
         id="path123"
         style="stroke-width:0.264583" />
      <path
         fill-rule="nonzero"
         fill="#8e5a2e"
         fill-opacity="1"
         d="m 148.37844,118.09039 15.80679,0.25114 c 0,0 -3.01895,5.33405 -8.84804,5.64307 -5.82602,0.30696 -6.95875,-5.89421 -6.95875,-5.89421"
         id="path124"
         style="stroke-width:0.264583" />
      <path
         fill-rule="nonzero"
         fill="#8e5a2e"
         fill-opacity="1"
         d="m 186.61382,138.10053 c -24.37061,0.32557 -28.17606,21.84156 -28.17606,21.84156 0,0 19.24844,8.88215 26.30229,28.63804 4.84208,13.56302 -0.29353,24.49256 -3.99254,30.01679 h 21.32068 c 5.95828,-5.78569 0.15605,-11.9879 0.15605,-11.9879 0,0 0.64802,-11.24169 -1.03145,-16.97881 -1.67846,-5.73299 -11.56311,-11.86077 -13.87822,-17.28163 -2.3151,-5.4188 -16.07034,-14.62134 -16.07034,-14.62134 4.24678,-16.32252 25.48991,-13.16302 25.48991,-13.16302 0,0 6.43474,2.56419 8.30752,-3.40548 -7.1696,-2.24069 -13.2633,-3.12745 -18.42784,-3.05821"
         id="path125"
         style="stroke-width:0.264583" />
      <path
         fill-rule="nonzero"
         fill="#8e5a2e"
         fill-opacity="1"
         d="m 199.96184,122.49839 c 0,0 1.98956,-1.47692 1.83658,1.66604 -0.15399,3.1409 -2.68303,1.18029 -1.83658,-1.66604"
         id="path126"
         style="stroke-width:0.264583" />
      <path
         fill-rule="nonzero"
         fill="#8e5a2e"
         fill-opacity="1"
         d="m 132.04042,241.72418 h 63.58474 v -7.74113 h -63.58474 v 7.74113"
         id="path127"
         style="stroke-width:0.264583" />
    </g>
  </g>
</svg>
