<?xml version="1.0" encoding="UTF-8" standalone="no"?>
<!-- Created with Inkscape (http://www.inkscape.org/) -->

<svg
   width="113.29103mm"
   height="242.17336mm"
   viewBox="0 0 113.29103 242.17336"
   version="1.1"
   id="svg1"
   xmlns="http://www.w3.org/2000/svg"
   xmlns:svg="http://www.w3.org/2000/svg">
  <defs
     id="defs1" />
  <g
     id="layer1"
     transform="translate(-103.35448,-38.913331)">
    <g
       id="g1"
       transform="translate(-252.77469,-334.67833)">
      <path
         fill-rule="nonzero"
         fill="#b38658"
         fill-opacity="1"
         d="m 396.52906,455.99387 c 0,26.04802 -7.73596,84.87543 -7.73596,84.87543 1.94096,1.21441 23.98199,1.11932 23.98199,1.11932 0,0 22.04,0.0951 23.98199,-1.11932 0,0 -7.73594,-58.82741 -7.73594,-84.87543 h -32.49208"
         id="path88"
         style="stroke-width:0.264583" />
      <path
         fill-rule="nonzero"
         fill="#8e5a2e"
         fill-opacity="1"
         d="m 389.02357,540.94888 -10.76317,10.51925 c 23.89932,4.85037 45.128,1.77253 69.03041,0 l -10.76315,-10.51925 h -47.50409"
         id="path89"
         style="stroke-width:0.264583" />
      <path
         fill-rule="nonzero"
         fill="#b38658"
         fill-opacity="1"
         d="m 378.2604,551.46813 v 9.45886 c 0,0 -10.98744,17.56069 -21.26278,25.78137 0,0 -5.64307,6.3655 11.85147,11.59415 h 87.84993 c 17.4966,-5.22865 11.85354,-11.59415 11.85354,-11.59415 -10.27636,-8.22068 -21.26175,-25.78137 -21.26175,-25.78137 v -9.45886 H 378.2604"
         id="path90"
         style="stroke-width:0.264583" />
      <path
         fill-rule="nonzero"
         fill="#8e5a2e"
         fill-opacity="1"
         d="m 357.55262,586.25052 c -0.185,0.15296 -0.37103,0.30901 -0.55603,0.45784 0,0 -5.64204,6.3655 11.8525,11.59415 h 87.84993 c 17.4966,-5.22865 11.85354,-11.59415 11.85354,-11.59415 -0.18499,-0.14883 -0.36999,-0.30488 -0.55602,-0.45784 -4.67259,1.95234 -18.51774,5.86838 -55.22145,6.63009 -36.7037,-0.76171 -50.54988,-4.67775 -55.22247,-6.63009"
         id="path91"
         style="stroke-width:0.264583" />
      <path
         fill-rule="nonzero"
         fill="#b38658"
         fill-opacity="1"
         d="m 361.38805,597.22245 h 102.77203 c 1.54512,0 2.78948,1.24127 2.78948,2.78641 v 7.59126 c 0,1.54512 -1.24436,2.78845 -2.78948,2.78845 H 361.38805 c -1.54409,0 -2.78743,-1.24333 -2.78743,-2.78845 v -7.59126 c 0,-1.54514 1.24334,-2.78641 2.78743,-2.78641"
         id="path92"
         style="stroke-width:0.264583" />
      <path
         fill-rule="nonzero"
         fill="#8e5a2e"
         fill-opacity="1"
         d="m 358.60062,607.60012 v 5.37538 c 0,1.54512 1.24334,2.78951 2.78743,2.78951 h 102.77203 c 1.54512,0 2.78948,-1.24439 2.78948,-2.78951 v -5.37538 c 0,1.54512 -1.24436,2.78845 -2.78948,2.78845 H 361.38805 c -1.54409,0 -2.78743,-1.24333 -2.78743,-2.78845"
         id="path93"
         style="stroke-width:0.264583" />
      <path
         fill-rule="nonzero"
         fill="#8e5a2e"
         fill-opacity="1"
         d="m 383.00327,448.56383 c -4.35736,1.85725 -1.78697,7.43004 -1.78697,7.43004 h 63.11657 c 0,0 2.57141,-5.57279 -1.78594,-7.43004 h -59.54366"
         id="path94"
         style="stroke-width:0.264583" />
      <path
         fill-rule="nonzero"
         fill="#b38658"
         fill-opacity="1"
         d="m 391.05135,432.10902 h 43.44645 v 14.91485 h -43.44645 v -14.91485"
         id="path95"
         style="stroke-width:0.264583" />
      <path
         fill-rule="nonzero"
         fill="#8e5a2e"
         fill-opacity="1"
         d="m 392.52103,440.76172 c -2.35024,0 -4.25917,4.10311 -4.25917,4.10311 h 49.02439 c 0,0 -1.90685,-4.10311 -4.25709,-4.10311 h -40.50813"
         id="path96"
         style="stroke-width:0.264583" />
      <path
         fill-rule="nonzero"
         fill="#b38658"
         fill-opacity="1"
         d="m 388.17711,444.45969 c -2.8546,0 -5.17384,4.10414 -5.17384,4.10414 h 59.54366 c 0,0 -2.32029,-4.10414 -5.17281,-4.10414 h -49.19701"
         id="path97"
         style="stroke-width:0.264583" />
      <path
         fill-rule="nonzero"
         fill="#8e5a2e"
         fill-opacity="1"
         d="m 394.85784,426.68506 h 35.83245 v 5.42396 h -35.83245 v -5.42396"
         id="path98"
         style="stroke-width:0.264583" />
      <path
         fill-rule="nonzero"
         fill="#8e5a2e"
         fill-opacity="1"
         d="m 399.24517,373.59166 c -2.20555,0 -4.56613,5.72782 -8.00365,5.12734 -3.43648,-0.60358 -4.82554,-6.56704 -6.80888,-4.20439 -1.98231,2.36057 -8.05532,6.92981 -8.05532,6.92981 v 2.94968 c 26.03355,3.48713 45.98169,1.40044 72.79451,0 v -2.94968 c 0,0 -6.07197,-4.56924 -8.05428,-6.92981 -1.98438,-2.36265 -3.37344,3.60081 -6.80993,4.20439 -3.43752,0.60048 -5.79705,-5.12734 -8.00364,-5.12734 -2.20658,0 -4.24057,5.40846 -5.95726,5.2865 -1.71669,-0.11885 -5.81876,-4.98471 -7.57163,-4.98471 -1.75389,0 -5.27926,4.86586 -6.99595,4.98471 -1.71669,0.12196 -4.32842,-5.2865 -6.53397,-5.2865"
         id="path99"
         style="stroke-width:0.264583" />
      <path
         fill-rule="nonzero"
         fill="#b38658"
         fill-opacity="1"
         d="m 376.37732,384.3941 c 12.60594,4.78628 18.48052,42.50284 18.48052,42.50284 h 35.83245 c 0,0 5.87664,-37.71656 18.48154,-42.50284 h -72.79451"
         id="path100"
         style="stroke-width:0.264583" />
    </g>
  </g>
</svg>
