<?xml version="1.0" encoding="UTF-8" standalone="no"?>
<!-- Created with Inkscape (http://www.inkscape.org/) -->

<svg
   width="210mm"
   height="297mm"
   viewBox="0 0 210 297"
   version="1.1"
   id="svg1"
   xmlns="http://www.w3.org/2000/svg"
   xmlns:svg="http://www.w3.org/2000/svg">
  <defs
     id="defs1" />
  <g
     id="layer1">
    <path
       fill-rule="nonzero"
       fill="#8e5a2e"
       fill-opacity="1"
       d="m 80.589642,100.5582 c 0,0 -2.80086,0.77205 -3.539834,3.40755 -0.738973,2.63549 3.850929,4.41833 3.850929,4.41833 16.809309,1.34979 31.705553,0.49506 48.501433,0 0,0 4.59093,-1.78284 3.85092,-4.41833 -0.73897,-2.6355 -3.53983,-3.40755 -3.53983,-3.40755 H 80.589642"
       id="path73"
       style="stroke-width:0.264583" />
    <path
       fill-rule="nonzero"
       fill="#b38658"
       fill-opacity="1"
       d="m 81.507416,108.38408 v 12.5336 l 23.644034,0.35657 23.64507,-0.35657 v -12.5336 H 81.507416"
       id="path74"
       style="stroke-width:0.264583" />
    <path
       fill-rule="nonzero"
       fill="#8e5a2e"
       fill-opacity="1"
       d="m 91.387949,120.03401 c -3.405475,0.005 -6.454386,0.0476 -8.120432,0.16434 -5.331976,0.3731 -6.352067,3.63181 -6.352067,3.63181 v 4.30569 c 20.817332,3.65042 35.67017,1.61127 56.472,0 v -4.30569 c 0,0 -1.02009,-3.25871 -6.35206,-3.63181 -4.07934,-0.28319 -16.29875,-0.1354 -21.88394,-0.0486 -3.30316,-0.0496 -8.831501,-0.12403 -13.763501,-0.11576"
       id="path75"
       style="stroke-width:0.264583" />
    <path
       fill-rule="nonzero"
       fill="#b38658"
       fill-opacity="1"
       d="m 76.916482,128.13585 c -8.644432,2.21691 -12.030273,6.40787 -12.030273,6.40787 h 80.530481 c 0,0 -3.38584,-4.19096 -12.02924,-6.40787 H 76.916482"
       id="path76"
       style="stroke-width:0.264583" />
    <path
       fill-rule="nonzero"
       fill="#8e5a2e"
       fill-opacity="1"
       d="M 79.034183,222.69234 67.198212,233.717 c 26.280567,5.08288 49.624878,1.85724 75.907508,0 L 131.26975,222.69234 H 79.034183"
       id="path77"
       style="stroke-width:0.264583" />
    <path
       fill-rule="nonzero"
       fill="#b38658"
       fill-opacity="1"
       d="m 67.198212,233.717 v 10.40143 c 0,0 -12.081949,19.31149 -23.381517,28.34968 0,0 -6.205307,6.99804 13.032795,12.74755 h 96.60392 c 19.2381,-5.74951 13.03383,-12.74755 13.03383,-12.74755 -11.29957,-9.03819 -23.38152,-28.34968 -23.38152,-28.34968 V 233.717 H 67.198212"
       id="path78"
       style="stroke-width:0.264583" />
    <path
       fill-rule="nonzero"
       fill="#8e5a2e"
       fill-opacity="1"
       d="m 44.426477,271.96273 c -0.202573,0.16949 -0.407212,0.34105 -0.609782,0.50538 0,0 -6.205307,6.99804 13.032795,12.74755 h 96.60392 c 19.2381,-5.74951 13.03383,-12.74755 13.03383,-12.74755 -0.2036,-0.16433 -0.40721,-0.33589 -0.61081,-0.50538 -5.13974,2.14871 -20.36465,6.45644 -60.72498,7.29464 -40.360324,-0.8382 -55.585235,-5.14593 -60.724973,-7.29464"
       id="path79"
       style="stroke-width:0.264583" />
    <path
       fill-rule="nonzero"
       fill="#b38658"
       fill-opacity="1"
       d="M 48.645341,284.02813 H 161.6586 c 1.69808,0 3.06544,1.36736 3.06544,3.06649 v 8.34782 c 0,1.69807 -1.36736,3.06337 -3.06544,3.06337 H 48.645341 c -1.698088,0 -3.065447,-1.3653 -3.065447,-3.06337 v -8.34782 c 0,-1.69913 1.367359,-3.06649 3.065447,-3.06649"
       id="path80"
       style="stroke-width:0.264583" />
    <path
       fill-rule="nonzero"
       fill="#8e5a2e"
       fill-opacity="1"
       d="m 45.579894,295.44244 v 5.91074 c 0,1.69809 1.367359,3.06649 3.065447,3.06649 H 161.6586 c 1.69808,0 3.06441,-1.3684 3.06441,-3.06649 v -5.91074 c 0,1.69807 -1.36633,3.06337 -3.06441,3.06337 H 48.645341 c -1.698088,0 -3.065447,-1.3653 -3.065447,-3.06337"
       id="path81"
       style="stroke-width:0.264583" />
    <path
       fill-rule="nonzero"
       fill="#8e5a2e"
       fill-opacity="1"
       d="m 64.886209,134.54372 c 1.500685,5.6038 21.525301,7.64915 21.525301,7.64915 14.02188,1.98954 23.51484,0.81752 37.47988,0 0,0 20.02462,-2.04535 21.5253,-7.64915 H 64.886209"
       id="path82"
       style="stroke-width:0.264583" />
    <path
       fill-rule="nonzero"
       fill="#b38658"
       fill-opacity="1"
       d="m 87.458474,142.19287 c 0,27.58798 -8.424291,80.49947 -8.424291,80.49947 2.113566,1.28572 26.117267,1.18547 26.117267,1.18547 0,0 24.0037,0.10025 26.1183,-1.18547 0,0 -8.42532,-52.91149 -8.42532,-80.49947 H 87.458474"
       id="path83"
       style="stroke-width:0.264583" />
    <path
       fill-rule="nonzero"
       fill="#b38658"
       fill-opacity="1"
       d="M 67.669501,55.057102 80.589642,100.5582 H 129.71326 L 142.6334,55.057102 H 67.669501"
       id="path84"
       style="stroke-width:0.264583" />
    <path
       fill-rule="nonzero"
       fill="#b38658"
       fill-opacity="1"
       d="m 103.36345,43.627308 -0.0424,0.137462 -13.512352,0.513662 -6.381004,2.333707 -1.82108,6.336564 H 128.6973 l -1.82211,-6.336564 -6.38101,-2.333707 -13.51132,-0.513662 -0.0444,-0.137462 -1.78697,0.06615 -1.788,-0.06615"
       id="path85"
       style="stroke-width:0.264583" />
    <path
       fill-rule="nonzero"
       fill="#8e5a2e"
       fill-opacity="1"
       d="m 104.61608,50.586059 v 0.0031 C 70.132402,50.679073 67.669501,55.0602 67.669501,55.0602 H 142.6334 c 0,0 -2.46186,-4.381127 -36.94658,-4.471045 v -0.0031 c -0.18087,0 -0.35554,0 -0.53537,0 -0.17983,0 -0.3545,0 -0.53537,0"
       id="path86"
       style="stroke-width:0.264583" />
    <path
       fill-rule="nonzero"
       fill="#8e5a2e"
       fill-opacity="1"
       d="M 105.15145,-7.6729176 94.027584,2.2944312 V 11.814264 L 80.385006,9.6025139 V 32.448663 l 13.051398,-2.442226 -3.626652,14.271995 h 30.684428 l -3.62768,-14.271995 13.0514,2.442226 V 9.6025139 L 116.27532,11.814264 V 2.2944312 l -11.12387,-9.9673488"
       id="path87"
       style="stroke-width:0.264583" />
  </g>
</svg>
